<mxfile host="app.diagrams.net" modified="2022-03-04T14:00:21.105Z" agent="5.0 (Windows NT 10.0; Win64; x64) AppleWebKit/537.36 (KHTML, like Gecko) Chrome/98.0.4758.102 Safari/537.36" etag="3C_DTD8MEw7QiAeaLfLT" version="16.6.4" type="github">
  <diagram id="dDQdzIFmnK0KT4cxsgkZ" name="Page-1">
    <mxGraphModel dx="2249" dy="1941" grid="1" gridSize="10" guides="1" tooltips="1" connect="1" arrows="1" fold="1" page="1" pageScale="1" pageWidth="827" pageHeight="1169" math="0" shadow="0">
      <root>
        <mxCell id="0" />
        <mxCell id="1" parent="0" />
        <mxCell id="rb9kDbuqcN5MRsn3v0AL-1" value="" style="group" vertex="1" connectable="0" parent="1">
          <mxGeometry x="-210" y="-1110" width="324" height="240" as="geometry" />
        </mxCell>
        <mxCell id="rb9kDbuqcN5MRsn3v0AL-2" value="" style="rounded=0;whiteSpace=wrap;html=1;sketch=0;hachureGap=4;pointerEvents=0;fontFamily=Architects Daughter;fontSource=https%3A%2F%2Ffonts.googleapis.com%2Fcss%3Ffamily%3DArchitects%2BDaughter;fontSize=15;fillColor=#dae8fc;gradientColor=#7ea6e0;strokeColor=#6c8ebf;" vertex="1" parent="rb9kDbuqcN5MRsn3v0AL-1">
          <mxGeometry x="64" y="40" width="260" height="200" as="geometry" />
        </mxCell>
        <mxCell id="rb9kDbuqcN5MRsn3v0AL-3" value="" style="rounded=0;whiteSpace=wrap;html=1;sketch=0;hachureGap=4;pointerEvents=0;fontFamily=Architects Daughter;fontSource=https%3A%2F%2Ffonts.googleapis.com%2Fcss%3Ffamily%3DArchitects%2BDaughter;fontSize=15;fillColor=#d5e8d4;gradientColor=#97d077;strokeColor=#82b366;" vertex="1" parent="rb9kDbuqcN5MRsn3v0AL-1">
          <mxGeometry x="96" y="40" width="223" height="180" as="geometry" />
        </mxCell>
        <mxCell id="rb9kDbuqcN5MRsn3v0AL-4" value="" style="rounded=0;whiteSpace=wrap;html=1;sketch=0;hachureGap=4;pointerEvents=0;fontFamily=Architects Daughter;fontSource=https%3A%2F%2Ffonts.googleapis.com%2Fcss%3Ffamily%3DArchitects%2BDaughter;fontSize=15;fillColor=#ffcd28;gradientColor=#ffa500;strokeColor=#d79b00;" vertex="1" parent="rb9kDbuqcN5MRsn3v0AL-1">
          <mxGeometry x="134" y="40" width="180" height="150" as="geometry" />
        </mxCell>
        <mxCell id="rb9kDbuqcN5MRsn3v0AL-5" value="&lt;span&gt;正整数&lt;/span&gt;" style="rounded=0;whiteSpace=wrap;html=1;sketch=0;hachureGap=4;pointerEvents=0;fontFamily=Architects Daughter;fontSource=https%3A%2F%2Ffonts.googleapis.com%2Fcss%3Ffamily%3DArchitects%2BDaughter;fontSize=15;fillColor=#f8cecc;gradientColor=#ea6b66;strokeColor=#b85450;" vertex="1" parent="rb9kDbuqcN5MRsn3v0AL-1">
          <mxGeometry x="209" y="40" width="100" height="30" as="geometry" />
        </mxCell>
        <mxCell id="rb9kDbuqcN5MRsn3v0AL-6" value="&lt;span&gt;零&lt;/span&gt;" style="rounded=0;whiteSpace=wrap;html=1;sketch=0;hachureGap=4;pointerEvents=0;fontFamily=Architects Daughter;fontSource=https%3A%2F%2Ffonts.googleapis.com%2Fcss%3Ffamily%3DArchitects%2BDaughter;fontSize=15;fillColor=#f8cecc;gradientColor=#ea6b66;strokeColor=#b85450;" vertex="1" parent="rb9kDbuqcN5MRsn3v0AL-1">
          <mxGeometry x="209" y="70" width="100" height="30" as="geometry" />
        </mxCell>
        <mxCell id="rb9kDbuqcN5MRsn3v0AL-7" value="&lt;span&gt;负整数&lt;/span&gt;" style="rounded=0;whiteSpace=wrap;html=1;sketch=0;hachureGap=4;pointerEvents=0;fontFamily=Architects Daughter;fontSource=https%3A%2F%2Ffonts.googleapis.com%2Fcss%3Ffamily%3DArchitects%2BDaughter;fontSize=15;fillColor=#f8cecc;gradientColor=#ea6b66;strokeColor=#b85450;" vertex="1" parent="rb9kDbuqcN5MRsn3v0AL-1">
          <mxGeometry x="209" y="100" width="100" height="30" as="geometry" />
        </mxCell>
        <mxCell id="rb9kDbuqcN5MRsn3v0AL-8" value="整&lt;br&gt;数" style="rounded=0;whiteSpace=wrap;html=1;sketch=0;hachureGap=4;pointerEvents=0;fontFamily=Architects Daughter;fontSource=https%3A%2F%2Ffonts.googleapis.com%2Fcss%3Ffamily%3DArchitects%2BDaughter;fontSize=15;fillColor=#f8cecc;gradientColor=#ea6b66;strokeColor=#b85450;" vertex="1" parent="rb9kDbuqcN5MRsn3v0AL-1">
          <mxGeometry x="164" y="40" width="45" height="90" as="geometry" />
        </mxCell>
        <mxCell id="rb9kDbuqcN5MRsn3v0AL-9" value="&lt;span&gt;有限位数小数&lt;/span&gt;" style="rounded=0;whiteSpace=wrap;html=1;sketch=0;hachureGap=4;pointerEvents=0;fontFamily=Architects Daughter;fontSource=https%3A%2F%2Ffonts.googleapis.com%2Fcss%3Ffamily%3DArchitects%2BDaughter;fontSize=15;fillColor=#f5f5f5;gradientColor=#b3b3b3;strokeColor=#666666;" vertex="1" parent="rb9kDbuqcN5MRsn3v0AL-1">
          <mxGeometry x="209" y="130" width="100" height="30" as="geometry" />
        </mxCell>
        <mxCell id="rb9kDbuqcN5MRsn3v0AL-10" value="&lt;span&gt;无限循环小数&lt;/span&gt;" style="rounded=0;whiteSpace=wrap;html=1;sketch=0;hachureGap=4;pointerEvents=0;fontFamily=Architects Daughter;fontSource=https%3A%2F%2Ffonts.googleapis.com%2Fcss%3Ffamily%3DArchitects%2BDaughter;fontSize=15;fillColor=#f5f5f5;gradientColor=#b3b3b3;strokeColor=#666666;" vertex="1" parent="rb9kDbuqcN5MRsn3v0AL-1">
          <mxGeometry x="209" y="160" width="100" height="30" as="geometry" />
        </mxCell>
        <mxCell id="rb9kDbuqcN5MRsn3v0AL-11" value="分&lt;br&gt;数" style="rounded=0;whiteSpace=wrap;html=1;sketch=0;hachureGap=4;pointerEvents=0;fontFamily=Architects Daughter;fontSource=https%3A%2F%2Ffonts.googleapis.com%2Fcss%3Ffamily%3DArchitects%2BDaughter;fontSize=15;fillColor=#f5f5f5;gradientColor=#b3b3b3;strokeColor=#666666;" vertex="1" parent="rb9kDbuqcN5MRsn3v0AL-1">
          <mxGeometry x="164" y="130" width="45" height="60" as="geometry" />
        </mxCell>
        <mxCell id="rb9kDbuqcN5MRsn3v0AL-12" value="无限不循环小数" style="rounded=0;whiteSpace=wrap;html=1;sketch=0;hachureGap=4;pointerEvents=0;fontFamily=Architects Daughter;fontSource=https%3A%2F%2Ffonts.googleapis.com%2Fcss%3Ffamily%3DArchitects%2BDaughter;fontSize=15;fillColor=#fff2cc;gradientColor=#ffd966;strokeColor=#d6b656;" vertex="1" parent="rb9kDbuqcN5MRsn3v0AL-1">
          <mxGeometry x="134" y="190" width="180" height="30" as="geometry" />
        </mxCell>
        <mxCell id="rb9kDbuqcN5MRsn3v0AL-13" value="&lt;span&gt;有&lt;/span&gt;&lt;br&gt;&lt;span&gt;理&lt;/span&gt;&lt;br&gt;&lt;span&gt;数&lt;/span&gt;" style="text;html=1;align=center;verticalAlign=middle;resizable=0;points=[];autosize=1;strokeColor=none;fillColor=none;sketch=0;hachureGap=4;pointerEvents=0;fontFamily=Architects Daughter;fontSource=https%3A%2F%2Ffonts.googleapis.com%2Fcss%3Ffamily%3DArchitects%2BDaughter;fontSize=15;" vertex="1" parent="rb9kDbuqcN5MRsn3v0AL-1">
          <mxGeometry x="130" y="84" width="30" height="60" as="geometry" />
        </mxCell>
        <mxCell id="rb9kDbuqcN5MRsn3v0AL-14" value="实&lt;br&gt;数" style="text;html=1;align=center;verticalAlign=middle;resizable=0;points=[];autosize=1;strokeColor=none;fillColor=none;sketch=0;hachureGap=4;pointerEvents=0;fontFamily=Architects Daughter;fontSource=https%3A%2F%2Ffonts.googleapis.com%2Fcss%3Ffamily%3DArchitects%2BDaughter;fontSize=15;" vertex="1" parent="rb9kDbuqcN5MRsn3v0AL-1">
          <mxGeometry x="100" y="125" width="30" height="40" as="geometry" />
        </mxCell>
        <mxCell id="rb9kDbuqcN5MRsn3v0AL-15" value="虚数" style="rounded=0;whiteSpace=wrap;html=1;sketch=0;hachureGap=4;pointerEvents=0;fontFamily=Architects Daughter;fontSource=https%3A%2F%2Ffonts.googleapis.com%2Fcss%3Ffamily%3DArchitects%2BDaughter;fontSize=15;fillColor=#e6d0de;gradientColor=#d5739d;strokeColor=#996185;" vertex="1" parent="rb9kDbuqcN5MRsn3v0AL-1">
          <mxGeometry x="95" y="220" width="224" height="20" as="geometry" />
        </mxCell>
        <mxCell id="rb9kDbuqcN5MRsn3v0AL-16" value="复&lt;br&gt;&lt;br&gt;&lt;br&gt;数" style="text;html=1;align=center;verticalAlign=middle;resizable=0;points=[];autosize=1;strokeColor=none;fillColor=none;sketch=0;hachureGap=4;pointerEvents=0;fontFamily=Architects Daughter;fontSource=https%3A%2F%2Ffonts.googleapis.com%2Fcss%3Ffamily%3DArchitects%2BDaughter;fontSize=15;" vertex="1" parent="rb9kDbuqcN5MRsn3v0AL-1">
          <mxGeometry x="64" y="105" width="30" height="80" as="geometry" />
        </mxCell>
        <mxCell id="rb9kDbuqcN5MRsn3v0AL-17" value="数的结构体：" style="shape=callout;whiteSpace=wrap;html=1;perimeter=calloutPerimeter;sketch=0;hachureGap=4;pointerEvents=0;fontFamily=Architects Daughter;fontSource=https%3A%2F%2Ffonts.googleapis.com%2Fcss%3Ffamily%3DArchitects%2BDaughter;fontSize=15;base=20;position2=0.5;size=10;position=0.11;fillColor=#eeeeee;strokeColor=#36393d;" vertex="1" parent="rb9kDbuqcN5MRsn3v0AL-1">
          <mxGeometry width="130" height="40" as="geometry" />
        </mxCell>
        <mxCell id="rb9kDbuqcN5MRsn3v0AL-18" value="" style="rounded=0;whiteSpace=wrap;html=1;sketch=1;hachureGap=4;pointerEvents=0;fontFamily=Architects Daughter;fontSource=https%3A%2F%2Ffonts.googleapis.com%2Fcss%3Ffamily%3DArchitects%2BDaughter;fontSize=20;fillColor=default;strokeColor=default;fontColor=default;" vertex="1" parent="1">
          <mxGeometry x="-740" y="-1110" width="390" height="460" as="geometry" />
        </mxCell>
        <mxCell id="rb9kDbuqcN5MRsn3v0AL-19" value="" style="rounded=0;whiteSpace=wrap;html=1;sketch=1;hachureGap=4;pointerEvents=0;fontFamily=Architects Daughter;fontSource=https%3A%2F%2Ffonts.googleapis.com%2Fcss%3Ffamily%3DArchitects%2BDaughter;fontSize=20;fontColor=default;strokeColor=default;fillColor=default;" vertex="1" parent="1">
          <mxGeometry x="-610" y="-650" width="200" height="110" as="geometry" />
        </mxCell>
        <mxCell id="rb9kDbuqcN5MRsn3v0AL-20" value="" style="rounded=0;whiteSpace=wrap;html=1;sketch=1;hachureGap=4;pointerEvents=0;fontFamily=Architects Daughter;fontSource=https%3A%2F%2Ffonts.googleapis.com%2Fcss%3Ffamily%3DArchitects%2BDaughter;fontSize=20;fontColor=default;strokeColor=default;fillColor=default;" vertex="1" parent="1">
          <mxGeometry x="-740" y="-890" width="130" height="100" as="geometry" />
        </mxCell>
        <mxCell id="rb9kDbuqcN5MRsn3v0AL-21" value="" style="rounded=0;whiteSpace=wrap;html=1;sketch=1;hachureGap=4;pointerEvents=0;fontFamily=Architects Daughter;fontSource=https%3A%2F%2Ffonts.googleapis.com%2Fcss%3Ffamily%3DArchitects%2BDaughter;fontSize=20;fontColor=default;strokeColor=default;fillColor=default;" vertex="1" parent="1">
          <mxGeometry x="-510" y="-900" width="160" height="110" as="geometry" />
        </mxCell>
        <mxCell id="rb9kDbuqcN5MRsn3v0AL-22" value="" style="rounded=0;whiteSpace=wrap;html=1;sketch=1;hachureGap=4;pointerEvents=0;fontFamily=Architects Daughter;fontSource=https%3A%2F%2Ffonts.googleapis.com%2Fcss%3Ffamily%3DArchitects%2BDaughter;fontSize=20;fontColor=default;strokeColor=default;fillColor=default;" vertex="1" parent="1">
          <mxGeometry x="-510" y="-1110" width="160" height="130" as="geometry" />
        </mxCell>
        <mxCell id="rb9kDbuqcN5MRsn3v0AL-23" value="" style="rounded=0;whiteSpace=wrap;html=1;sketch=1;hachureGap=4;pointerEvents=0;fontFamily=Architects Daughter;fontSource=https%3A%2F%2Ffonts.googleapis.com%2Fcss%3Ffamily%3DArchitects%2BDaughter;fontSize=20;fontColor=default;strokeColor=default;fillColor=default;" vertex="1" parent="1">
          <mxGeometry x="-460" y="-980" width="110" height="80" as="geometry" />
        </mxCell>
        <mxCell id="rb9kDbuqcN5MRsn3v0AL-24" value="" style="rounded=0;whiteSpace=wrap;html=1;sketch=1;hachureGap=4;pointerEvents=0;fontFamily=Architects Daughter;fontSource=https%3A%2F%2Ffonts.googleapis.com%2Fcss%3Ffamily%3DArchitects%2BDaughter;fontSize=20;fontColor=default;strokeColor=default;fillColor=default;" vertex="1" parent="1">
          <mxGeometry x="-740" y="-790" width="110" height="140" as="geometry" />
        </mxCell>
        <mxCell id="rb9kDbuqcN5MRsn3v0AL-25" value="" style="verticalLabelPosition=bottom;html=1;verticalAlign=top;align=center;shape=mxgraph.floorplan.doorRight;aspect=fixed;sketch=1;hachureGap=4;pointerEvents=0;fontFamily=Architects Daughter;fontSource=https%3A%2F%2Ffonts.googleapis.com%2Fcss%3Ffamily%3DArchitects%2BDaughter;fontSize=20;fontColor=default;strokeColor=default;fillColor=default;rotation=90;flipV=0;flipH=1;" vertex="1" parent="1">
          <mxGeometry x="-530" y="-540" width="56.47" height="60" as="geometry" />
        </mxCell>
        <mxCell id="rb9kDbuqcN5MRsn3v0AL-26" value="" style="verticalLabelPosition=bottom;html=1;verticalAlign=top;align=center;shape=mxgraph.floorplan.doorRight;aspect=fixed;sketch=1;hachureGap=4;pointerEvents=0;fontFamily=Architects Daughter;fontSource=https%3A%2F%2Ffonts.googleapis.com%2Fcss%3Ffamily%3DArchitects%2BDaughter;fontSize=20;fontColor=default;strokeColor=default;fillColor=default;rotation=90;flipV=0;flipH=0;" vertex="1" parent="1">
          <mxGeometry x="-500" y="-710" width="56.47" height="60" as="geometry" />
        </mxCell>
        <mxCell id="rb9kDbuqcN5MRsn3v0AL-27" value="" style="rounded=0;whiteSpace=wrap;html=1;sketch=1;hachureGap=4;pointerEvents=0;fontFamily=Architects Daughter;fontSource=https%3A%2F%2Ffonts.googleapis.com%2Fcss%3Ffamily%3DArchitects%2BDaughter;fontSize=20;fontColor=default;strokeColor=default;fillColor=default;" vertex="1" parent="1">
          <mxGeometry x="-630" y="-690" width="50" height="40" as="geometry" />
        </mxCell>
        <mxCell id="rb9kDbuqcN5MRsn3v0AL-28" value="" style="pointerEvents=1;verticalLabelPosition=bottom;shadow=0;dashed=0;align=center;html=1;verticalAlign=top;shape=mxgraph.electrical.electro-mechanical.switch_disconnector;sketch=1;hachureGap=4;fontFamily=Architects Daughter;fontSource=https%3A%2F%2Ffonts.googleapis.com%2Fcss%3Ffamily%3DArchitects%2BDaughter;fontSize=20;fontColor=default;strokeColor=default;fillColor=default;" vertex="1" parent="1">
          <mxGeometry x="-531" y="-884.5" width="21" height="9" as="geometry" />
        </mxCell>
        <mxCell id="rb9kDbuqcN5MRsn3v0AL-29" value="" style="pointerEvents=1;verticalLabelPosition=bottom;shadow=0;dashed=0;align=center;html=1;verticalAlign=top;shape=mxgraph.electrical.electro-mechanical.switch_disconnector;sketch=1;hachureGap=4;fontFamily=Architects Daughter;fontSource=https%3A%2F%2Ffonts.googleapis.com%2Fcss%3Ffamily%3DArchitects%2BDaughter;fontSize=20;fontColor=default;strokeColor=default;fillColor=default;" vertex="1" parent="1">
          <mxGeometry x="-490" y="-790" width="21" height="9" as="geometry" />
        </mxCell>
        <mxCell id="rb9kDbuqcN5MRsn3v0AL-30" value="" style="pointerEvents=1;verticalLabelPosition=bottom;shadow=0;dashed=0;align=center;html=1;verticalAlign=top;shape=mxgraph.electrical.electro-mechanical.switch_disconnector;sketch=1;hachureGap=4;fontFamily=Architects Daughter;fontSource=https%3A%2F%2Ffonts.googleapis.com%2Fcss%3Ffamily%3DArchitects%2BDaughter;fontSize=20;fontColor=default;strokeColor=default;fillColor=default;" vertex="1" parent="1">
          <mxGeometry x="-630" y="-790" width="21" height="9" as="geometry" />
        </mxCell>
        <mxCell id="rb9kDbuqcN5MRsn3v0AL-31" value="" style="pointerEvents=1;verticalLabelPosition=bottom;shadow=0;dashed=0;align=center;html=1;verticalAlign=top;shape=mxgraph.electrical.electro-mechanical.switch_disconnector;sketch=1;hachureGap=4;fontFamily=Architects Daughter;fontSource=https%3A%2F%2Ffonts.googleapis.com%2Fcss%3Ffamily%3DArchitects%2BDaughter;fontSize=20;fontColor=default;strokeColor=default;fillColor=default;" vertex="1" parent="1">
          <mxGeometry x="-555.5" y="-660" width="21" height="9" as="geometry" />
        </mxCell>
        <mxCell id="rb9kDbuqcN5MRsn3v0AL-32" value="" style="pointerEvents=1;verticalLabelPosition=bottom;shadow=0;dashed=0;align=center;html=1;verticalAlign=top;shape=mxgraph.electrical.electro-mechanical.switch_disconnector;sketch=1;hachureGap=4;fontFamily=Architects Daughter;fontSource=https%3A%2F%2Ffonts.googleapis.com%2Fcss%3Ffamily%3DArchitects%2BDaughter;fontSize=20;fontColor=default;strokeColor=default;fillColor=default;" vertex="1" parent="1">
          <mxGeometry x="-481" y="-990" width="21" height="9" as="geometry" />
        </mxCell>
        <mxCell id="rb9kDbuqcN5MRsn3v0AL-33" value="" style="pointerEvents=1;verticalLabelPosition=bottom;shadow=0;dashed=0;align=center;html=1;verticalAlign=top;shape=mxgraph.electrical.electro-mechanical.switch_disconnector;sketch=1;hachureGap=4;fontFamily=Architects Daughter;fontSource=https%3A%2F%2Ffonts.googleapis.com%2Fcss%3Ffamily%3DArchitects%2BDaughter;fontSize=20;fontColor=default;strokeColor=default;fillColor=default;" vertex="1" parent="1">
          <mxGeometry x="-481" y="-900" width="21" height="9" as="geometry" />
        </mxCell>
        <mxCell id="rb9kDbuqcN5MRsn3v0AL-34" value="" style="pointerEvents=1;verticalLabelPosition=bottom;shadow=0;dashed=0;align=center;html=1;verticalAlign=top;shape=mxgraph.electrical.electro-mechanical.switch_disconnector;sketch=1;hachureGap=4;fontFamily=Architects Daughter;fontSource=https%3A%2F%2Ffonts.googleapis.com%2Fcss%3Ffamily%3DArchitects%2BDaughter;fontSize=20;fontColor=default;strokeColor=default;fillColor=default;" vertex="1" parent="1">
          <mxGeometry x="-481" y="-950" width="21" height="9" as="geometry" />
        </mxCell>
        <mxCell id="rb9kDbuqcN5MRsn3v0AL-35" value="" style="pointerEvents=1;verticalLabelPosition=bottom;shadow=0;dashed=0;align=center;html=1;verticalAlign=top;shape=mxgraph.electrical.electro-mechanical.switch_disconnector;sketch=1;hachureGap=4;fontFamily=Architects Daughter;fontSource=https%3A%2F%2Ffonts.googleapis.com%2Fcss%3Ffamily%3DArchitects%2BDaughter;fontSize=20;fontColor=default;strokeColor=default;fillColor=default;" vertex="1" parent="1">
          <mxGeometry x="-631" y="-870" width="21" height="9" as="geometry" />
        </mxCell>
      </root>
    </mxGraphModel>
  </diagram>
</mxfile>
